<svg width="37" height="41" viewBox="0 0 37 41" fill="none" xmlns="http://www.w3.org/2000/svg">
<path d="M8.9742 8.38791C14.9836 3.66437 23.5722 4.05045 29.1284 9.30358C34.7817 14.6455 35.5541 23.3768 30.9044 29.6276C26.523 35.5162 18.625 37.4569 12.0483 34.4195L11.6906 34.247L4.94583 35.8374L4.8302 35.8596L4.66062 35.875L4.48641 35.8682L4.41858 35.8596L4.249 35.8255L4.08712 35.7674L3.93295 35.6922L3.81579 35.6204L3.64929 35.4889L3.52441 35.3625L3.41187 35.2207L3.33016 35.0926L3.22995 34.8961L3.1652 34.715L3.11741 34.522L3.09737 34.3939L3.0835 34.206L3.08966 34.0129L3.09737 33.9377L3.1282 33.7498L3.16212 33.6268L4.93504 27.7314L4.90112 27.6699C1.49404 21.2687 3.03725 13.3335 8.61808 8.67662L8.97266 8.38962L8.9742 8.38791Z" fill="white"/>
<rect x="6" y="8" width="25" height="25" rx="12.5" fill="#0038FF"/>
<g clip-path="url(#clip0_19_151)">
<path d="M16.7141 23V19.4286C16.7141 19.0497 16.5636 18.6863 16.2957 18.4184C16.0277 18.1505 15.6644 18 15.2855 18C14.9066 18 14.5433 18.1505 14.2754 18.4184C14.0074 18.6863 13.8569 19.0497 13.8569 19.4286" stroke="black" stroke-width="2" stroke-linecap="round" stroke-linejoin="round"/>
<path d="M21 23V19.4286C21 19.0497 21.1505 18.6863 21.4184 18.4184C21.6863 18.1505 22.0497 18 22.4286 18C22.8075 18 23.1708 18.1505 23.4387 18.4184C23.7066 18.6863 23.8571 19.0497 23.8571 19.4286" stroke="black" stroke-width="2" stroke-linecap="round" stroke-linejoin="round"/>
<path d="M18.8569 23V15.8571C18.8569 15.2888 19.0827 14.7438 19.4846 14.3419C19.8864 13.94 20.4315 13.7143 20.9998 13.7143C21.5681 13.7143 22.1132 13.94 22.515 14.3419C22.9169 14.7438 23.1426 15.2888 23.1426 15.8571" stroke="black" stroke-width="2" stroke-linecap="round" stroke-linejoin="round"/>
<path d="M14.5713 15.8571C14.5713 15.2888 14.7971 14.7438 15.1989 14.3419C15.6008 13.94 16.1458 13.7143 16.7141 13.7143C17.2825 13.7143 17.8275 13.94 18.2294 14.3419C18.6312 14.7438 18.857 15.2888 18.857 15.8571" stroke="black" stroke-width="2" stroke-linecap="round" stroke-linejoin="round"/>
<path d="M12.4287 23H25.2859V24.4286C25.2859 24.9969 25.0601 25.5419 24.6582 25.9438C24.2564 26.3457 23.7113 26.5714 23.143 26.5714H14.5716C14.0032 26.5714 13.4582 26.3457 13.0563 25.9438C12.6545 25.5419 12.4287 24.9969 12.4287 24.4286V23Z" stroke="black" stroke-width="2" stroke-linecap="round" stroke-linejoin="round"/>
</g>
<defs>
<clipPath id="clip0_19_151">
<rect width="17.1429" height="17.1429" fill="white" transform="translate(10.2856 11.5714)"/>
</clipPath>
</defs>
</svg>
