<svg width="75" height="75" viewBox="0 0 75 75" fill="none" xmlns="http://www.w3.org/2000/svg">
<rect width="75" height="75" rx="37.5" fill="#F59622"/>
<g clip-path="url(#clip0_88_203)">
<path d="M37.5 37.5C41.25 31.95 37.5 24.375 35.625 22.5C35.625 28.1963 32.3006 31.3894 30 33.75C27.7013 36.1125 26.25 39.825 26.25 43.125C26.25 46.1087 27.4353 48.9702 29.545 51.08C31.6548 53.1897 34.5163 54.375 37.5 54.375C40.4837 54.375 43.3452 53.1897 45.455 51.08C47.5647 48.9702 48.75 46.1087 48.75 43.125C48.75 40.2525 46.77 35.7375 45 33.75C41.6512 39.375 39.7669 39.375 37.5 37.5Z" stroke="black" stroke-width="3" stroke-linecap="round" stroke-linejoin="round"/>
</g>
<defs>
<clipPath id="clip0_88_203">
<rect width="45" height="45" fill="white" transform="translate(15 15)"/>
</clipPath>
</defs>
</svg>
