<svg width="37" height="41" viewBox="0 0 37 41" fill="none" xmlns="http://www.w3.org/2000/svg">
<path d="M8.9742 8.38791C14.9836 3.66437 23.5722 4.05045 29.1284 9.30358C34.7817 14.6455 35.5541 23.3768 30.9044 29.6276C26.523 35.5162 18.625 37.4569 12.0483 34.4195L11.6906 34.247L4.94583 35.8374L4.8302 35.8596L4.66062 35.875L4.48641 35.8682L4.41858 35.8596L4.249 35.8255L4.08712 35.7674L3.93295 35.6922L3.81579 35.6205L3.64929 35.4889L3.52441 35.3625L3.41187 35.2207L3.33016 35.0926L3.22995 34.8961L3.1652 34.715L3.11741 34.522L3.09737 34.3939L3.0835 34.206L3.08966 34.0129L3.09737 33.9377L3.1282 33.7498L3.16212 33.6268L4.93504 27.7314L4.90112 27.6699C1.49404 21.2687 3.03725 13.3335 8.61808 8.67662L8.97266 8.38962L8.9742 8.38791Z" fill="white"/>
<rect x="6" y="8" width="25" height="25" rx="12.5" fill="#0094FF"/>
<path d="M23.8307 22.2414C23.9379 21.2306 23.7124 20.2125 23.1886 19.3414L19.6957 14.1557C19.3957 13.7086 18.7764 13.5814 18.3129 13.8714C18.1965 13.9444 18.0967 14.0411 18.02 14.155L17.1043 15.5121M15.9436 17.2371L14.525 19.3414C13.3143 21.3679 13.7857 23.9414 15.6443 25.445C17.5029 26.9486 20.2121 26.9486 22.07 25.445C22.4492 25.1392 22.7805 24.7783 23.0529 24.3743" stroke="black" stroke-width="2" stroke-linecap="round" stroke-linejoin="round"/>
<path d="M12.4286 13.7143L25.2857 26.5714" stroke="black" stroke-width="2" stroke-linecap="round" stroke-linejoin="round"/>
</svg>
