<svg width="37" height="41" viewBox="0 0 37 41" fill="none" xmlns="http://www.w3.org/2000/svg">
<path d="M8.9742 8.38789C14.9836 3.66435 23.5722 4.05044 29.1284 9.30356C34.7817 14.6455 35.5541 23.3768 30.9044 29.6276C26.523 35.5162 18.625 37.4569 12.0483 34.4195L11.6906 34.2469L4.94583 35.8374L4.8302 35.8596L4.66062 35.875L4.48641 35.8681L4.41858 35.8596L4.249 35.8254L4.08712 35.7674L3.93295 35.6922L3.81579 35.6204L3.64929 35.4889L3.52441 35.3625L3.41187 35.2207L3.33016 35.0926L3.22995 34.8961L3.1652 34.715L3.11741 34.522L3.09737 34.3939L3.0835 34.2059L3.08966 34.0129L3.09737 33.9377L3.1282 33.7498L3.16212 33.6268L4.93504 27.7314L4.90112 27.6699C1.49404 21.2687 3.03725 13.3335 8.61808 8.6766L8.97266 8.3896L8.9742 8.38789Z" fill="black"/>
<rect x="6" y="8" width="25" height="25" rx="12.5" fill="#F59622"/>
<g clip-path="url(#clip0_386_43)">
<path d="M18.5 20.5C19.75 18.65 18.5 16.125 17.875 15.5C17.875 17.3988 16.7669 18.4631 16 19.25C15.2338 20.0375 14.75 21.275 14.75 22.375C14.75 23.3696 15.1451 24.3234 15.8483 25.0267C16.5516 25.7299 17.5054 26.125 18.5 26.125C19.4946 26.125 20.4484 25.7299 21.1517 25.0267C21.8549 24.3234 22.25 23.3696 22.25 22.375C22.25 21.4175 21.59 19.9125 21 19.25C19.8837 21.125 19.2556 21.125 18.5 20.5Z" stroke="black" stroke-width="1.5" stroke-linecap="round" stroke-linejoin="round"/>
</g>
<defs>
<clipPath id="clip0_386_43">
<rect width="15" height="15" fill="white" transform="translate(11 13)"/>
</clipPath>
</defs>
</svg>
