<svg width="37" height="41" viewBox="0 0 37 41" fill="none" xmlns="http://www.w3.org/2000/svg">
<path d="M8.9742 8.38789C14.9836 3.66435 23.5722 4.05044 29.1284 9.30356C34.7817 14.6455 35.5541 23.3768 30.9044 29.6276C26.523 35.5162 18.625 37.4569 12.0483 34.4195L11.6906 34.2469L4.94583 35.8374L4.8302 35.8596L4.66062 35.875L4.48641 35.8681L4.41858 35.8596L4.249 35.8254L4.08712 35.7674L3.93295 35.6922L3.81579 35.6204L3.64929 35.4889L3.52441 35.3625L3.41187 35.2207L3.33016 35.0926L3.22995 34.8961L3.1652 34.715L3.11741 34.522L3.09737 34.3939L3.0835 34.2059L3.08966 34.0129L3.09737 33.9377L3.1282 33.7498L3.16212 33.6268L4.93504 27.7314L4.90112 27.6699C1.49404 21.2687 3.03725 13.3335 8.61808 8.6766L8.97266 8.3896L8.9742 8.38789Z" fill="black"/>
<rect x="6" y="8" width="25" height="25" rx="12.5" fill="#808080"/>
<path d="M10.375 25.5C10.375 25.9104 10.5852 26.3167 10.9935 26.6959C11.4018 27.075 12.0003 27.4195 12.7548 27.7097C13.5092 27.9999 14.4049 28.2301 15.3907 28.3871C16.3765 28.5442 17.433 28.625 18.5 28.625C19.567 28.625 20.6235 28.5442 21.6093 28.3871C22.5951 28.2301 23.4908 27.9999 24.2452 27.7097C24.9997 27.4195 25.5982 27.075 26.0065 26.6959C26.4148 26.3167 26.625 25.9104 26.625 25.5C26.625 24.6712 25.769 23.8763 24.2452 23.2903C22.7215 22.7042 20.6549 22.375 18.5 22.375C16.3451 22.375 14.2785 22.7042 12.7548 23.2903C11.231 23.8763 10.375 24.6712 10.375 25.5Z" stroke="black" stroke-linecap="round" stroke-linejoin="round"/>
<g clip-path="url(#clip0_386_54)">
<path d="M18.6852 12.6266C18.869 12.6268 19.05 12.6778 19.213 12.7754C19.3759 12.873 19.5158 13.0143 19.621 13.1873L19.6623 13.2592L22.8824 19.4282C22.9789 19.6201 23.0314 19.8371 23.0349 20.0587C23.0385 20.2803 22.993 20.4993 22.9027 20.6952C22.8124 20.8911 22.6803 21.0576 22.5187 21.179C22.3571 21.3003 22.1713 21.3727 21.9787 21.3892L21.9024 21.3932H15.4643C15.2715 21.3905 15.0824 21.3319 14.9147 21.2228C14.7469 21.1136 14.606 20.9575 14.505 20.769C14.4041 20.5805 14.3463 20.3657 14.3372 20.1446C14.3281 19.9236 14.3679 19.7035 14.4529 19.5049L14.4915 19.422L17.7094 13.257C17.8112 13.0645 17.9544 12.9055 18.1253 12.7951C18.2963 12.6847 18.4891 12.6267 18.6852 12.6266ZM18.712 18.7632L18.6635 18.7663C18.5706 18.779 18.4851 18.8303 18.423 18.9105C18.3609 18.9907 18.3266 19.0943 18.3266 19.2015C18.3266 19.3088 18.3609 19.4124 18.423 19.4926C18.4851 19.5728 18.5706 19.6241 18.6635 19.6368L18.7082 19.6399L18.7567 19.6368C18.8495 19.6241 18.9351 19.5728 18.9971 19.4926C19.0592 19.4124 19.0935 19.3088 19.0935 19.2015C19.0935 19.0943 19.0592 18.9907 18.9971 18.9105C18.9351 18.8303 18.8495 18.779 18.7567 18.7663L18.712 18.7632ZM18.7082 15.2566C18.6146 15.2566 18.5243 15.296 18.4544 15.3674C18.3845 15.4387 18.3398 15.537 18.3289 15.6436L18.3262 15.6949V17.4482L18.3289 17.4995C18.3399 17.6061 18.3846 17.7042 18.4545 17.7755C18.5244 17.8467 18.6147 17.8861 18.7082 17.8861C18.8016 17.8861 18.8919 17.8467 18.9618 17.7755C19.0317 17.7042 19.0764 17.6061 19.0874 17.4995L19.0901 17.4482V15.6949L19.0874 15.6436C19.0765 15.537 19.0318 15.4387 18.9619 15.3674C18.892 15.296 18.8017 15.2566 18.7082 15.2566Z" fill="black"/>
</g>
<defs>
<clipPath id="clip0_386_54">
<rect width="9.16667" height="10.5198" fill="white" transform="translate(14.125 11.75)"/>
</clipPath>
</defs>
</svg>
