<svg width="37" height="41" viewBox="0 0 37 41" fill="none" xmlns="http://www.w3.org/2000/svg">
<path d="M8.9742 8.38789C14.9836 3.66435 23.5722 4.05044 29.1284 9.30356C34.7817 14.6455 35.5541 23.3768 30.9044 29.6276C26.523 35.5162 18.625 37.4569 12.0483 34.4195L11.6906 34.2469L4.94583 35.8374L4.8302 35.8596L4.66062 35.875L4.48641 35.8681L4.41858 35.8596L4.249 35.8254L4.08712 35.7674L3.93295 35.6922L3.81579 35.6204L3.64929 35.4889L3.52441 35.3625L3.41187 35.2207L3.33016 35.0926L3.22995 34.8961L3.1652 34.715L3.11741 34.522L3.09737 34.3939L3.0835 34.2059L3.08966 34.0129L3.09737 33.9377L3.1282 33.7498L3.16212 33.6268L4.93504 27.7314L4.90112 27.6699C1.49404 21.2687 3.03725 13.3335 8.61808 8.6766L8.97266 8.3896L8.9742 8.38789Z" fill="black"/>
<rect x="6" y="8" width="25" height="25" rx="12.5" fill="#5CDDBE"/>
<path d="M13.3439 15.8429H24.2814C24.7649 15.8429 25.2285 16.0414 25.5704 16.3946C25.9123 16.7479 26.1043 17.227 26.1043 17.7266V26.2031C26.1043 26.4529 26.0083 26.6925 25.8374 26.8691C25.6664 27.0457 25.4346 27.145 25.1929 27.145H23.37C23.1282 27.145 22.8964 27.0457 22.7255 26.8691C22.5545 26.6925 22.4585 26.4529 22.4585 26.2031V24.3195C22.4585 23.3203 22.0744 22.362 21.3907 21.6555C20.7069 20.949 19.7796 20.5521 18.8127 20.5521C17.8457 20.5521 16.9184 20.949 16.2347 21.6555C15.5509 22.362 15.1668 23.3203 15.1668 24.3195V26.2031C15.1668 26.4529 15.0708 26.6925 14.8999 26.8691C14.7289 27.0457 14.4971 27.145 14.2554 27.145H12.4325C12.1907 27.145 11.9589 27.0457 11.788 26.8691C11.617 26.6925 11.521 26.4529 11.521 26.2031V17.7266C11.521 17.227 11.7131 16.7479 12.0549 16.3946C12.3968 16.0414 12.8604 15.8429 13.3439 15.8429Z" stroke="black" stroke-width="1.5" stroke-linecap="round" stroke-linejoin="round"/>
<path d="M18.375 16.6042L18.9219 17.8708L17.8281 18.8841L18.9219 19.8974" stroke="black" stroke-width="1.5" stroke-linecap="round" stroke-linejoin="round"/>
</svg>
