<svg width="37" height="41" viewBox="0 0 37 41" fill="none" xmlns="http://www.w3.org/2000/svg">
<path d="M8.9742 8.38789C14.9836 3.66435 23.5722 4.05044 29.1284 9.30356C34.7817 14.6455 35.5541 23.3768 30.9044 29.6276C26.523 35.5162 18.625 37.4569 12.0483 34.4195L11.6906 34.2469L4.94583 35.8374L4.8302 35.8596L4.66062 35.875L4.48641 35.8681L4.41858 35.8596L4.249 35.8254L4.08712 35.7674L3.93295 35.6922L3.81579 35.6204L3.64929 35.4889L3.52441 35.3625L3.41187 35.2207L3.33016 35.0926L3.22995 34.8961L3.1652 34.715L3.11741 34.522L3.09737 34.3939L3.0835 34.2059L3.08966 34.0129L3.09737 33.9377L3.1282 33.7498L3.16212 33.6268L4.93504 27.7314L4.90112 27.6699C1.49404 21.2687 3.03725 13.3335 8.61808 8.6766L8.97266 8.3896L8.9742 8.38789Z" fill="black"/>
<rect x="6" y="8" width="25" height="25" rx="12.5" fill="#FFFF00"/>
<g clip-path="url(#clip0_384_16)">
<path d="M12.4844 20.8125H13.1875M18.8125 14.4844V15.1875M24.4375 20.8125H25.1406M14.3125 16.3125L14.8047 16.8047M23.3125 16.3125L22.8203 16.8047" stroke="black" stroke-width="1.5" stroke-linecap="round" stroke-linejoin="round"/>
<path d="M18.1718 17.3553C18.7335 17.2511 19.312 17.2853 19.8574 17.4549C20.4028 17.6246 20.8987 17.9246 21.3021 18.329C21.7055 18.7333 22.0043 19.2299 22.1726 19.7757C22.341 20.3215 22.3738 20.9002 22.2683 21.4615M21.2993 23.2974C21.1814 23.4154 21.0552 23.5249 20.9218 23.625C20.6472 23.8968 20.4405 24.2293 20.3184 24.5958C20.1962 24.9622 20.1621 25.3523 20.2186 25.7344C20.2186 26.1074 20.0705 26.465 19.8068 26.7288C19.543 26.9925 19.1854 27.1406 18.8124 27.1406C18.4394 27.1406 18.0817 26.9925 17.818 26.7288C17.5543 26.465 17.4061 26.1074 17.4061 25.7344C17.4627 25.3523 17.4285 24.9622 17.3064 24.5958C17.1842 24.2293 16.9775 23.8968 16.703 23.625C16.2995 23.3224 15.9657 22.9365 15.7245 22.4936C15.4833 22.0506 15.3402 21.5609 15.305 21.0577C15.2697 20.5545 15.3432 20.0496 15.5204 19.5774C15.6976 19.1051 15.9743 18.6765 16.3318 18.3206" stroke="black" stroke-width="1.5" stroke-linecap="round" stroke-linejoin="round"/>
<path d="M17.1953 24.3281H20.4297" stroke="black" stroke-width="1.5" stroke-linecap="round" stroke-linejoin="round"/>
<path d="M12.4844 14.4844L25.1406 27.1406" stroke="black" stroke-width="1.5" stroke-linecap="round" stroke-linejoin="round"/>
</g>
<defs>
<clipPath id="clip0_384_16">
<rect width="16.875" height="16.875" fill="white" transform="translate(10.375 12.375)"/>
</clipPath>
</defs>
</svg>
