<svg width="75" height="75" viewBox="0 0 75 75" fill="none" xmlns="http://www.w3.org/2000/svg">
<rect width="75" height="75" rx="37.5" fill="#0038FF"/>
<path d="M32.143 45V34.2857C32.143 33.1491 31.6915 32.059 30.8878 31.2552C30.084 30.4515 28.9939 30 27.8573 30C26.7207 30 25.6306 30.4515 24.8268 31.2552C24.0231 32.059 23.5716 33.1491 23.5716 34.2857" stroke="black" stroke-width="2" stroke-linecap="round" stroke-linejoin="round"/>
<path d="M45.0002 45V34.2857C45.0002 33.1491 45.4517 32.059 46.2554 31.2552C47.0591 30.4515 48.1492 30 49.2859 30C50.4225 30 51.5126 30.4515 52.3163 31.2552C53.1201 32.059 53.5716 33.1491 53.5716 34.2857" stroke="black" stroke-width="2" stroke-linecap="round" stroke-linejoin="round"/>
<path d="M38.5716 45V23.5714C38.5716 21.8665 39.2489 20.2313 40.4545 19.0257C41.6601 17.8201 43.2952 17.1429 45.0002 17.1429C46.7051 17.1429 48.3403 17.8201 49.5458 19.0257C50.7514 20.2313 51.4287 21.8665 51.4287 23.5714" stroke="black" stroke-width="2" stroke-linecap="round" stroke-linejoin="round"/>
<path d="M25.7144 23.5714C25.7144 21.8665 26.3917 20.2313 27.5973 19.0257C28.8029 17.8201 30.438 17.1429 32.143 17.1429C33.848 17.1429 35.4831 17.8201 36.6887 19.0257C37.8943 20.2313 38.5716 21.8665 38.5716 23.5714" stroke="black" stroke-width="2" stroke-linecap="round" stroke-linejoin="round"/>
<path d="M19.2859 45H57.8573V49.2857C57.8573 50.9907 57.18 52.6258 55.9744 53.8314C54.7688 55.037 53.1337 55.7143 51.4287 55.7143H25.7144C24.0095 55.7143 22.3743 55.037 21.1688 53.8314C19.9632 52.6258 19.2859 50.9907 19.2859 49.2857V45Z" stroke="black" stroke-width="2" stroke-linecap="round" stroke-linejoin="round"/>
</svg>
