<svg width="75" height="75" viewBox="0 0 75 75" fill="none" xmlns="http://www.w3.org/2000/svg">
<rect width="75" height="75" rx="37.5" fill="#808080"/>
<path d="M13.125 52.5C13.125 53.7311 13.7555 54.9502 14.9804 56.0877C16.2054 57.2251 18.0008 58.2586 20.2643 59.1291C22.5277 59.9997 25.2148 60.6902 28.1721 61.1614C31.1294 61.6325 34.299 61.875 37.5 61.875C40.701 61.875 43.8706 61.6325 46.8279 61.1614C49.7852 60.6902 52.4723 59.9997 54.7357 59.1291C56.9992 58.2586 58.7946 57.2251 60.0196 56.0877C61.2445 54.9502 61.875 53.7311 61.875 52.5C61.875 50.0136 59.3069 47.629 54.7357 45.8709C50.1645 44.1127 43.9647 43.125 37.5 43.125C31.0353 43.125 24.8355 44.1127 20.2643 45.8709C15.6931 47.629 13.125 50.0136 13.125 52.5Z" stroke="black" stroke-width="2" stroke-linecap="round" stroke-linejoin="round"/>
<g clip-path="url(#clip0_88_208)">
<path d="M38.0562 13.88C38.6076 13.8804 39.1507 14.0335 39.6394 14.3263C40.1281 14.6191 40.5481 15.0429 40.8635 15.5618L40.9873 15.7775L50.6478 34.2845C50.9373 34.8605 51.0947 35.5113 51.1053 36.1761C51.116 36.8409 50.9795 37.4979 50.7086 38.0857C50.4378 38.6734 50.0414 39.1727 49.5566 39.5369C49.0719 39.901 48.5145 40.118 47.9368 40.1677L47.7076 40.1795H28.3934C27.815 40.1716 27.2477 39.9957 26.7445 39.6683C26.2413 39.3408 25.8186 38.8725 25.5156 38.3069C25.2127 37.7414 25.0395 37.097 25.0122 36.4339C24.9848 35.7707 25.1042 35.1105 25.3593 34.5146L25.475 34.2661L35.1286 15.7709C35.434 15.1936 35.8638 14.7164 36.3765 14.3852C36.8893 14.054 37.4678 13.88 38.0562 13.88ZM38.1365 32.2897L37.9909 32.2989C37.7124 32.3369 37.4558 32.4908 37.2695 32.7314C37.0833 32.9721 36.9804 33.2828 36.9804 33.6046C36.9804 33.9265 37.0833 34.2372 37.2695 34.4778C37.4558 34.7185 37.7124 34.8724 37.9909 34.9104L38.125 34.9196L38.2705 34.9104C38.549 34.8724 38.8057 34.7185 38.9919 34.4778C39.1782 34.2372 39.281 33.9265 39.281 33.6046C39.281 33.2828 39.1782 32.9721 38.9919 32.7314C38.8057 32.4908 38.549 32.3369 38.2705 32.2989L38.1365 32.2897ZM38.125 21.7698C37.8443 21.7699 37.5735 21.8881 37.3637 22.1021C37.154 22.3162 37.02 22.6111 36.9872 22.931L36.9792 23.0848V28.3447L36.9872 28.4986C37.0203 28.8182 37.1544 29.1127 37.3641 29.3265C37.5738 29.5402 37.8445 29.6582 38.125 29.6582C38.4055 29.6582 38.6762 29.5402 38.8859 29.3265C39.0956 29.1127 39.2297 28.8182 39.2628 28.4986L39.2708 28.3447V23.0848L39.2628 22.931C39.23 22.6111 39.096 22.3162 38.8863 22.1021C38.6765 21.8881 38.4057 21.7699 38.125 21.7698Z" fill="black"/>
</g>
<defs>
<clipPath id="clip0_88_208">
<rect width="27.5" height="31.5595" fill="white" transform="translate(24.375 11.25)"/>
</clipPath>
</defs>
</svg>
