<svg width="75" height="75" viewBox="0 0 75 75" fill="none" xmlns="http://www.w3.org/2000/svg">
<rect width="75" height="75" rx="37.5" fill="#5CDDBE"/>
<path d="M22.0312 23.5286H54.8437C56.2941 23.5286 57.6851 24.124 58.7107 25.1838C59.7363 26.2436 60.3125 27.6809 60.3125 29.1797V54.6094C60.3125 55.3588 60.0244 56.0774 59.5116 56.6073C58.9988 57.1372 58.3033 57.4349 57.5781 57.4349H52.1094C51.3842 57.4349 50.6887 57.1372 50.1759 56.6073C49.6631 56.0774 49.375 55.3588 49.375 54.6094V48.9583C49.375 45.9608 48.2227 43.0861 46.1715 40.9666C44.1203 38.847 41.3383 37.6563 38.4375 37.6563C35.5367 37.6563 32.7547 38.847 30.7035 40.9666C28.6523 43.0861 27.5 45.9608 27.5 48.9583V54.6094C27.5 55.3588 27.2119 56.0774 26.6991 56.6073C26.1863 57.1372 25.4908 57.4349 24.7656 57.4349H19.2969C18.5717 57.4349 17.8762 57.1372 17.3634 56.6073C16.8506 56.0774 16.5625 55.3588 16.5625 54.6094V29.1797C16.5625 27.6809 17.1387 26.2436 18.1643 25.1838C19.1898 24.124 20.5808 23.5286 22.0312 23.5286Z" stroke="black" stroke-width="3" stroke-linecap="round" stroke-linejoin="round"/>
<path d="M37.125 25.8124L38.7656 29.6123L35.4844 32.6521L38.7656 35.692" stroke="black" stroke-width="3" stroke-linecap="round" stroke-linejoin="round"/>
</svg>
