<svg width="75" height="75" viewBox="0 0 75 75" fill="none" xmlns="http://www.w3.org/2000/svg">
<rect width="75" height="75" rx="37.5" fill="#FFFF00"/>
<g clip-path="url(#clip0_88_195)">
<path d="M19.4531 38.4375H21.5625M38.4375 19.4531V21.5625M55.3125 38.4375H57.4219M24.9375 24.9375L26.4141 26.4141M51.9375 24.9375L50.4609 26.4141" stroke="black" stroke-width="3" stroke-linecap="round" stroke-linejoin="round"/>
<path d="M36.5159 28.0657C38.2007 27.7531 39.9363 27.8557 41.5725 28.3647C43.2087 28.8737 44.6963 29.7737 45.9065 30.9868C47.1168 32.1999 48.0132 33.6897 48.5182 35.3271C49.0232 36.9646 49.1217 38.7004 48.8051 40.3845M45.8984 45.892C45.5445 46.2461 45.166 46.5746 44.7656 46.875C43.9421 47.6902 43.322 48.6879 42.9555 49.7873C42.5891 50.8866 42.4865 52.0568 42.6563 53.2031C42.6563 54.322 42.2118 55.3951 41.4206 56.1862C40.6294 56.9774 39.5564 57.4219 38.4375 57.4219C37.3186 57.4219 36.2456 56.9774 35.4544 56.1862C34.6632 55.3951 34.2188 54.322 34.2188 53.2031C34.3885 52.0568 34.2859 50.8866 33.9195 49.7873C33.553 48.6879 32.9329 47.6902 32.1094 46.875C30.8987 45.9672 29.8975 44.8096 29.1738 43.4806C28.4501 42.1517 28.0209 40.6825 27.9152 39.173C27.8096 37.6635 28.03 36.1489 28.5615 34.7321C29.093 33.3153 29.9232 32.0294 30.9956 30.9619" stroke="black" stroke-width="3" stroke-linecap="round" stroke-linejoin="round"/>
<path d="M33.5859 48.9844H43.2891" stroke="black" stroke-width="3" stroke-linecap="round" stroke-linejoin="round"/>
<path d="M19.4531 19.4531L57.4219 57.4219" stroke="black" stroke-width="3" stroke-linecap="round" stroke-linejoin="round"/>
</g>
<defs>
<clipPath id="clip0_88_195">
<rect width="50.625" height="50.625" fill="white" transform="translate(13.125 13.125)"/>
</clipPath>
</defs>
</svg>
